<svg id="Layer_1" data-name="Layer 1" xmlns="http://www.w3.org/2000/svg" viewBox="0 0 1000 179.45"><defs><style>.cls-1{fill:#231f20;}</style></defs><title>JV_Logo</title><path class="cls-1" d="M118.91,36.44c.39-.07.79-.14,1.19-.19a44,44,0,0,0-5.49-7.71,44,44,0,0,0-9.27,1A18.22,18.22,0,0,1,110,40.89,17.51,17.51,0,0,1,118.91,36.44Z"/><path class="cls-1" d="M106.09,62.51c2.45,1.6,2.89,4,3.21,5.8a5.07,5.07,0,0,0,.53,1.85,17.09,17.09,0,0,1,3.46,6.23l.07.25a14.5,14.5,0,0,1,1.92,1.71,62.64,62.64,0,0,1,13.5-7c.65-.29,2.64-1.38,6.09-4.83,7-7,2.44-19.69,1.1-23-3.3-1.35-16-5.87-23,1.1a27.73,27.73,0,0,0-5.06,6.72,59.5,59.5,0,0,1-4.94,10A7.69,7.69,0,0,1,106.09,62.51Z"/><path class="cls-1" d="M73.36,30.45A44.26,44.26,0,0,0,64,28.88a44.18,44.18,0,0,0-5.84,7.24,18.23,18.23,0,0,1,11.3,4.76A17.85,17.85,0,0,1,73.36,30.45Z"/><path class="cls-1" d="M67,84.1a8,8,0,0,1-2.8,3.57c-1.2,1-1.69,1.5-1.73,2.29-.08,1.48.4,1.87,1.46,2.74a6.26,6.26,0,0,1,2.66,4,5.13,5.13,0,0,0,1.78,2.52L76.2,95l1.52-1a12.74,12.74,0,0,1-.08-8.23L76.45,85l-8-3.83A11.21,11.21,0,0,0,67,84.1Z"/><path class="cls-1" d="M150.59,64.42a43.76,43.76,0,0,0-7.29-5.87,18.1,18.1,0,0,1-4.74,11,17.88,17.88,0,0,1,10.55,4A45.46,45.46,0,0,0,150.59,64.42Z"/><path class="cls-1" d="M105.89,149.24a43.35,43.35,0,0,0,9.52,1.63,41.7,41.7,0,0,0,6-7.52A18.27,18.27,0,0,1,110,138.56,17.92,17.92,0,0,1,105.89,149.24Z"/><path class="cls-1" d="M80.05,81.44a12.78,12.78,0,0,1,7.42-4.28l0-1.18-.67-8.78a11.22,11.22,0,0,0-3.29.17,8,8,0,0,1-4.49-.64c-1.48-.53-2.15-.71-2.86-.35-1.32.67-1.42,1.29-1.64,2.63a6.27,6.27,0,0,1-2.12,4.3,5.12,5.12,0,0,0-1.29,2.8l7.59,4.7Z"/><path class="cls-1" d="M136,136c1.35-3.3,5.87-16-1.1-23a26,26,0,0,0-7.49-5.35,64.63,64.63,0,0,1-12.06-6.49,16.83,16.83,0,0,1-1.93,2.49l-.18.18c-.19,1.61-.86,4.89-3.17,6.75-.19.15-.27.53-.4,1.36a7.36,7.36,0,0,1-4.17,6.11,6.38,6.38,0,0,1-2.12.66A55.59,55.59,0,0,1,108,128.3a30.22,30.22,0,0,0,4.94,6.56C119.93,141.83,132.66,137.31,136,136Z"/><path class="cls-1" d="M59.4,143.2a44.2,44.2,0,0,0,5.48,7.69,44.4,44.4,0,0,0,9.22-1,18.21,18.21,0,0,1-4.61-11.35A17.84,17.84,0,0,1,59.4,143.2Z"/><path class="cls-1" d="M43.49,43.49c-1.34,3.3-5.88,16,1.1,23a32.49,32.49,0,0,0,8.57,5.79,66.52,66.52,0,0,1,11.35,6.3,16.37,16.37,0,0,1,1.62-2l.18-.19c.19-1.61.85-4.89,3.16-6.75.19-.15.27-.53.4-1.36A7.36,7.36,0,0,1,74,62.14a6.3,6.3,0,0,1,2.54-.7A61.75,61.75,0,0,1,72,52.56a28.81,28.81,0,0,0-5.54-8C59.49,37.6,46.78,42.13,43.49,43.49Z"/><path class="cls-1" d="M73.41,117.65c-2.46-1.59-2.89-4-3.21-5.8a5.07,5.07,0,0,0-.53-1.85,17,17,0,0,1-3.46-6.23l-.07-.24a14.13,14.13,0,0,1-2.33-2.18,64.29,64.29,0,0,1-11.68,6.25A29.26,29.26,0,0,0,44.58,113c-7,7-2.44,19.69-1.1,23,3.3,1.34,16,5.87,23-1.1a27.2,27.2,0,0,0,5-6.7A53.87,53.87,0,0,1,76,118.78,8,8,0,0,1,73.41,117.65Z"/><path class="cls-1" d="M138.08,74.24h0a23.2,23.2,0,0,0-7.42,1.43,6.08,6.08,0,0,1-.89.32,60.43,60.43,0,0,0-12.19,6.54c0,.07,0,.15,0,.22,0,.23.32.49,1,1a7.36,7.36,0,0,1,3.2,6.67c-.15,2.92-2,4.52-3.41,5.68-.29.25-.6.51-.85.75a61.64,61.64,0,0,0,11.62,6.34h0l.14.06a25,25,0,0,0,8.79,1.94h0c9.84,0,15.64-12.19,17-15.48C153.73,86.44,147.93,74.24,138.08,74.24Z"/><path class="cls-1" d="M40.88,110a17.83,17.83,0,0,1-10.43-3.86,44.31,44.31,0,0,0-1.56,9.31,44.23,44.23,0,0,0,7.22,5.83A18.22,18.22,0,0,1,40.88,110Z"/><path class="cls-1" d="M41.36,105.21h0c4,0,9-1.63,14.7-4.73,2.3-1.26,4.25-2.51,5.59-3.43a8.3,8.3,0,0,0-.76-.67,7.36,7.36,0,0,1-3.2-6.67c.15-2.92,2-4.52,3.42-5.68a7.81,7.81,0,0,0,1.22-1.17,63.81,63.81,0,0,0-11-6.22h0l-.13-.06a26.3,26.3,0,0,0-9.8-2.35h0c-9.85,0-15.65,12.19-17,15.48C25.71,93,31.51,105.21,41.36,105.21Z"/><path class="cls-1" d="M143.2,120.15a46.18,46.18,0,0,0,7.29-5.26,44.39,44.39,0,0,0-1-9.21,18,18,0,0,1-11,4.28,17.52,17.52,0,0,1,4.44,9C143.08,119.32,143.14,119.73,143.2,120.15Z"/><path class="cls-1" d="M28.54,64.87a44.2,44.2,0,0,0,1,9.24A18.21,18.21,0,0,1,40.88,69.5a17.83,17.83,0,0,1-4.64-10.11A44,44,0,0,0,28.54,64.87Z"/><path class="cls-1" d="M74.88,111c.28,1.55.46,2.22,1.12,2.65,1.24.81,1.82.59,3.1.1a6.26,6.26,0,0,1,4.78-.32,5.13,5.13,0,0,0,3.07-.28l.28-8.9-.16-2.06a12.78,12.78,0,0,1-6.83-4l-1.57.84-7.27,5a11.13,11.13,0,0,0,1.79,2.76A8,8,0,0,1,74.88,111Z"/><path class="cls-1" d="M89.72,155.12c3.29-1.38,15.49-7.19,15.48-17,0-8.22-6.35-17.8-8.35-20.63a17.11,17.11,0,0,1-7-.14l-.25-.06c-1.47.63-4.59,1.68-7.33.67a55.18,55.18,0,0,0-5.9,10.66l.08,0a15.94,15.94,0,0,1-.65,1.46,24.43,24.43,0,0,0-1.56,8C74.24,147.93,86.43,153.73,89.72,155.12Z"/><path class="cls-1" d="M89.72,24.33c-3.28,1.38-15.49,7.19-15.49,17a25.43,25.43,0,0,0,2.08,9.16l.09.21h0a63.18,63.18,0,0,0,6.65,11.88,17.36,17.36,0,0,1,6.6.22l.26.07c1.39-.6,4.23-1.56,6.85-.83,2.51-3.62,8.44-13,8.44-20.71C105.2,31.48,93,25.71,89.72,24.33Z"/><path class="cls-1" d="M99.7,81.7l1.13-.61,7.27-5a11.17,11.17,0,0,0-1.79-2.77,8,8,0,0,1-1.7-4.21c-.28-1.55-.46-2.22-1.12-2.65-1.24-.81-1.82-.58-3.09-.1a6.26,6.26,0,0,1-4.78.32,5.11,5.11,0,0,0-3.07.28l-.28,8.88.1,1.34A12.79,12.79,0,0,1,99.7,81.7Z"/><path class="cls-1" d="M96,112.79a8,8,0,0,1,4.49.64c1.48.53,2.15.71,2.86.35,1.31-.67,1.41-1.28,1.63-2.63a6.26,6.26,0,0,1,2.11-4.3,5.15,5.15,0,0,0,1.3-2.8l-7.58-4.69L99,98.52a12.76,12.76,0,0,1-7,3.78L92,104.16l.67,8.79A11.17,11.17,0,0,0,96,112.79Z"/><path class="cls-1" d="M112.51,96.06a8,8,0,0,1,2.8-3.57c1.2-1,1.69-1.5,1.73-2.3.08-1.48-.4-1.87-1.46-2.74a6.27,6.27,0,0,1-2.66-4A5.13,5.13,0,0,0,111.14,81l-7.84,4.2L102,86a12.74,12.74,0,0,1-.32,8.27l1.37.85L111,99A11.14,11.14,0,0,0,112.51,96.06Z"/><path class="cls-1" d="M89.72,179.45A89.72,89.72,0,0,1,26.28,26.28,89.72,89.72,0,1,1,153.17,153.17,89.14,89.14,0,0,1,89.72,179.45Zm0-174a84.29,84.29,0,0,0-59.6,143.88,84.29,84.29,0,0,0,119.2-119.2A83.73,83.73,0,0,0,89.72,5.44Z"/><path class="cls-1" d="M267.11,66.71l-3.24.36c-1.87.22-2.52.65-2.52,1.3V89.56c0,14.2-5.4,20.61-14.49,20.61-4.68,0-8.07-2.23-8.07-5.19a3.69,3.69,0,0,1,4-3.75,5.33,5.33,0,0,1,3.89,1.73,8.9,8.9,0,0,1,2.16,4.54h.07c3-1.44,4.32-4.18,4.32-15V68.3c0-.72-.5-1-2.6-1.23l-4.18-.36L246.21,64h21.12Z"/><path class="cls-1" d="M304.22,110.24c-13.91,0-23.85-9.44-23.85-23.21a23.87,23.87,0,0,1,24.14-23.93c13.84,0,23.71,9.44,23.71,23.21A23.75,23.75,0,0,1,304.22,110.24Zm-.07-44.1c-8.07,0-14.7,7.06-14.7,20,0,13.33,6.92,21,15.06,21s14.7-7,14.7-20C319.21,73.92,312.3,66.14,304.15,66.14Z"/><path class="cls-1" d="M359.08,110.17a41,41,0,0,1-13.48-2.09l-.87-13.33h3.82L351.8,105a20.86,20.86,0,0,0,8.22,1.8c6.2,0,9.15-3.82,9.15-7.64,0-5.91-4.83-7.71-11-9.87-7.13-2.52-13-5.33-13-13.33,0-6.49,5-12.76,15.85-12.9a45.71,45.71,0,0,1,9.3.94l3.75-1V77.6h-3.75L367.73,68a19.77,19.77,0,0,0-7.49-1.44c-5.4,0-8.14,3.1-8.14,6.56,0,5.4,4.76,7.13,10.45,9.22,7.71,2.74,13.84,5.62,13.84,14C376.38,103.47,370,110.1,359.08,110.17Z"/><path class="cls-1" d="M420.39,109.09l.22-2.67,2.74-.36c1.95-.14,2.52-.58,2.52-1.3V87.69H405v17.15c0,.72.5,1,2.59,1.23l2.74.36.22,2.67H391.27l.22-2.67,2.81-.36c1.8-.22,2.52-.65,2.52-1.3V68.3c0-.65-.43-.94-2.67-1.23l-2.67-.36L391.27,64h19.24l-.22,2.67-2.81.36c-1.95.22-2.52.65-2.52,1.3V84.44h20.9V68.3c0-.72-.5-1-2.59-1.23l-2.67-.36L420.39,64h19.17l-.22,2.67-2.81.36c-1.8.22-2.52.65-2.52,1.3v36.47c0,.65.43.94,2.67,1.23l2.67.36.22,2.67Z"/><path class="cls-1" d="M502.47,66.71l-3.39.72c-2.52.43-3.1,1.23-3.1,14.34v12.4c0,9.87-6.7,16.21-17.66,16.21s-17.8-5.19-17.8-15.71V68.3c0-.65-.43-.94-2.59-1.23l-2.67-.36L455,64h19.17L474,66.71l-2.81.36c-1.87.22-2.45.65-2.45,1.3V92.66c0,9.37,4.83,13.33,12.18,13.33s11.82-4.47,11.82-12.76V81.78c0-13.12-.5-13.91-3-14.34l-3.68-.72L485.89,64h16.79Z"/><path class="cls-1" d="M536,109.09l.22-2.74,3.1-.5c2.81-.5,2.67-1.66.72-7.57l-1.51-4.83H523.66l-1.3,4.25c-2,5.62-1.95,7.71.5,8.14l2.67.5.22,2.74H509.9l.22-2.74,1.87-.5c3.17-.79,4.11-1.73,8.58-14.2L529,68.3V65.49l7.64-2.81,13.69,40.72a3.24,3.24,0,0,0,2.88,2.23l3.32.72.22,2.74Zm-4.4-37.69h-.5l-6.34,18.81h12.68Z"/><path class="cls-1" d="M640.62,66.79l-1.87.5c-3.32.79-4.11,1.73-8.65,14.27l-9.87,27.6h-7.86L598.68,69.74a2.86,2.86,0,0,0-2.59-2.23l-3.39-.72L592.48,64H613l-.22,2.74-3.1.5c-2.81.43-2.31,1.59-.36,7.57l9.15,27.53h.87l7.49-21.84c3.53-10.52,2.67-13-.79-13.55l-2-.22L623.83,64h17Z"/><path class="cls-1" d="M654.64,109.09l.22-2.67,3.53-.36c1.87-.22,2.52-.65,2.52-1.3V68.3c0-.65-.43-.94-2.67-1.23l-3.39-.36L654.64,64h20.68l-.22,2.67-3.53.36c-1.95.22-2.52.65-2.52,1.3v36.47c0,.72.5,1,2.59,1.23l3.46.36.22,2.67Z"/><path class="cls-1" d="M725.91,109.09H691l.22-2.67L694,106c1.8-.14,2.52-.58,2.52-1.3V68.3c0-.65-.43-.94-2.67-1.15l-2.67-.43L691,64h19.67l-.22,2.67-3.24.43c-1.95.14-2.52.65-2.52,1.3v37.62h1.73c12.11,0,13.33-.5,14.7-4.61L723,94.53h4.47Z"/><path class="cls-1" d="M777.11,109.09h-35l.22-2.67,2.81-.43c1.8-.14,2.52-.58,2.52-1.3V68.3c0-.65-.43-.94-2.67-1.15l-2.67-.43L742.16,64h19.67l-.22,2.67-3.24.43c-1.95.14-2.52.65-2.52,1.3v37.62h1.73c12.11,0,13.33-.5,14.7-4.61l1.87-6.92h4.47Z"/><path class="cls-1" d="M830.55,109.09H793.36l.22-2.67,2.81-.36c1.8-.22,2.52-.65,2.52-1.3V68.3c0-.65-.43-.94-2.67-1.23l-2.67-.36L793.36,64h37.33V78.17h-4.18l-1.66-6.49c-1.22-4.25-2.38-4.61-14.85-4.61h-3V84.73h1.87c4.83,0,6.2-.22,6.85-1.95L817.43,78h3.32l-1.59,16.43H816l-.65-4.54c-.22-1.59-.87-2.09-6.63-2.09h-1.66v18.31h2.74c13.12,0,14.49-.5,15.93-4.61l1.66-6h4.54Z"/><path class="cls-1" d="M894.69,91.58l-2.88.36c-1.87.22-2.52.65-2.52,1.3v10.52l4.32.5.22,2A64.87,64.87,0,0,1,873,110.17c-14.63,0-25.22-8.65-25.22-23.06,0-15.13,12-24.07,26-24.07A33.55,33.55,0,0,1,884,64.62l6.05-1.3V78.61h-4.4l-2.38-9.8a18.2,18.2,0,0,0-9.8-2.52c-9.66,0-16.65,8.43-16.65,19.75,0,12.76,5.91,21,16.5,21a19.81,19.81,0,0,0,7.93-1.73V93.16c0-.72-.5-1-2.59-1.23l-3.32-.36-.22-2.67h19.75Z"/><path class="cls-1" d="M933.81,109.09l.22-2.74,3.1-.5c2.81-.5,2.67-1.66.72-7.57l-1.51-4.83H921.49l-1.3,4.25c-2,5.62-1.95,7.71.5,8.14l2.67.5.22,2.74H907.72l.22-2.74,1.87-.5c3.17-.79,4.11-1.73,8.58-14.2l8.43-23.35V65.49l7.64-2.81,13.69,40.72a3.24,3.24,0,0,0,2.88,2.23l3.32.72.22,2.74Zm-4.4-37.69h-.5l-6.34,18.81h12.68Z"/><path class="cls-1" d="M982.7,110.17a41,41,0,0,1-13.48-2.09l-.87-13.33h3.82L975.43,105a20.86,20.86,0,0,0,8.22,1.8c6.2,0,9.15-3.82,9.15-7.64,0-5.91-4.83-7.71-11-9.87-7.13-2.52-13-5.33-13-13.33,0-6.49,5-12.76,15.85-12.9a45.71,45.71,0,0,1,9.3.94l3.75-1V77.6h-3.75L991.35,68a19.78,19.78,0,0,0-7.5-1.44c-5.4,0-8.14,3.1-8.14,6.56,0,5.4,4.76,7.13,10.45,9.22,7.71,2.74,13.84,5.62,13.84,14C1000,103.47,993.66,110.1,982.7,110.17Z"/></svg>