<svg id="Layer_1" data-name="Layer 1" xmlns="http://www.w3.org/2000/svg" viewBox="0 0 500 130.59"><defs><style>.cls-1{fill:#231f20;}</style></defs><title>Logo</title><path class="cls-1" d="M59.73,31.9q6.88,1,9.17,2.56a5.44,5.44,0,0,1,2.29,4.8q0,3.22-1.53,3.22T63.77,39a43.46,43.46,0,0,1-5.35-4.64,144.06,144.06,0,0,1-13.1,22,106,106,0,0,0,15.5-4.26,12.8,12.8,0,0,1,4.64-1,7.09,7.09,0,0,1,3.49.76q1.36.76,1.37,1.47T68.9,54.82q-1.42.66-10.48,3.06,2.4,1.31,2.4,2.51a8,8,0,0,1-.38,2.4,13.71,13.71,0,0,0-.49,3.38q5.78-2.29,7.58-2.29a6.29,6.29,0,0,1,3.22.82q1.42.82,1.42,1.31c0,.33-.24.62-.71.87s-2.27.89-5.4,1.91-5.24,1.63-6.33,1.85L59,88.76q10.48-2.94,11.13-3.22a3.68,3.68,0,0,1,1.42-.27q1.75,0,1.75.71a2.35,2.35,0,0,1-1,1.58,6.38,6.38,0,0,1-2.4,1.31Q45.75,97.38,41.94,99.46a8.78,8.78,0,0,1-3.88,1.2q-1.58,0-4.2-2.46t-2.62-3.6q0-1.15,2-1.15l2.95.22q4.37,0,18-3.6l.44-18.23a29.07,29.07,0,0,1-6.11.87,14.68,14.68,0,0,1-4.15-.54c-1.24-.36-1.85-.78-1.85-1.26s.58-.76,1.75-.87a106.53,106.53,0,0,0,10.48-2.46q0-6.65-1.31-8.73a36.29,36.29,0,0,1-4.86.33,14.83,14.83,0,0,1-4.75-.76A65.37,65.37,0,0,1,33.53,68.79q-6.22,5.13-8,5.13c-.36,0-.54-.17-.54-.49s.29-.78.87-1.37a124.86,124.86,0,0,0,20.3-27q7.75-14.14,7.75-18.72a4.11,4.11,0,0,0-.38-1.85,3.56,3.56,0,0,1-.38-1.64q0-.88,1.47-.87a10.78,10.78,0,0,1,4.42,1.58Q62,25.13,62,26.87a6.25,6.25,0,0,1-1,2.51Q60.05,31.13,59.73,31.9ZM49.25,84.29q0,2.73-1.42,2.73-2,0-4.64-4.31t-2.67-5.13c0-.54.25-.82.76-.82q1.42,0,4.69,2A6.17,6.17,0,0,1,49.25,84.29Zm23-8.19c0,.44-.36.87-1.09,1.31a15.71,15.71,0,0,0-2.46,1.91A32,32,0,0,1,65,82.16a10.19,10.19,0,0,1-2.78,1.58c-.29,0-.44-.11-.44-.33a3.38,3.38,0,0,1,.65-1.31q3.39-4.69,3.39-7.86l-.22-1.42q0-1,1.15-1a6.62,6.62,0,0,1,3.33,1.63Q72.28,75.12,72.28,76.1ZM83.63,47a45.57,45.57,0,0,1-6.39,6.93q-3.33,2.89-4.42,2.89c-.29,0-.44-.2-.44-.6a5.88,5.88,0,0,1,1.2-2.35,86.83,86.83,0,0,0,8.84-16.26q3.38-8.29,3.38-12.44a4.31,4.31,0,0,0-.27-1.64,3.42,3.42,0,0,1-.27-1.31q0-1.42,1.8-1.42a11.71,11.71,0,0,1,5,1.75q3.22,1.75,3.22,3.49a2.59,2.59,0,0,1-1,1.8q-1,.93-3.17,5.51a81,81,0,0,1-5.35,10.26,84.56,84.56,0,0,0,11.68-2.24q5.45-1.48,6.88-2.62a4.63,4.63,0,0,1,2.95-1.15q1.53,0,5.51,2t4,3.66a2.13,2.13,0,0,1-.76,1.42q-2.51,2.62-3.38,8.51-2.84,18-4,22.16a13.2,13.2,0,0,1-3.06,6,5.37,5.37,0,0,1-3.54,1.85A2,2,0,0,1,100,81.56a13.45,13.45,0,0,0-2.13-5.19,10.46,10.46,0,0,1-1.69-3.11.48.48,0,0,1,.54-.55,5.4,5.4,0,0,1,1.8.55,5.78,5.78,0,0,0,2.29.54q1,0,2.07-2.89A62.07,62.07,0,0,0,105,60.49a98.87,98.87,0,0,0,1.09-14.08,2.34,2.34,0,0,0-.54-1.85,3.38,3.38,0,0,0-2-.44,54.91,54.91,0,0,0-8,1.53A49.17,49.17,0,0,1,87,47.18,21,21,0,0,1,83.63,47ZM80,61.36A23.84,23.84,0,0,0,90.18,58.2a3.71,3.71,0,0,1,2.29-1,10.64,10.64,0,0,1,3.82,1.37Q99,59.95,99,60.93a2.42,2.42,0,0,1-.76,1.75,15.78,15.78,0,0,0-3.5,3.71,14.48,14.48,0,0,0-1.53,4.91q2,1.86,2,2.4c0,.36-.26.67-.76.93a45.19,45.19,0,0,1-5.57,1.58,55.52,55.52,0,0,1-8.73,1.53Q80,79.81,80,81.67,80,91.06,83,95.31t12.44,4.26A54.59,54.59,0,0,0,107,98.37q5.51-1.2,7.64-2.56a9.18,9.18,0,0,0,3.39-4.31,57.56,57.56,0,0,0,2.67-9.82q.44-2.62,1.26-2.62t.82,2.84q.11,8.73,1.86,12.88a6.23,6.23,0,0,1,.44,2.07q0,3.82-8.24,6.28a60.61,60.61,0,0,1-17.41,2.46q-9.17,0-15.17-2.51T77,95.69a53.59,53.59,0,0,1-1.31-13.37l.22-11.14q0-6.44-.87-7.8a4.67,4.67,0,0,1-.87-2.46c0-.73.53-1.09,1.58-1.09A9.78,9.78,0,0,1,80,61.36Zm.33,13.1A20.35,20.35,0,0,0,86,73.32a7.06,7.06,0,0,0,3-1.64,8.69,8.69,0,0,0,.82-3.22,31.39,31.39,0,0,0,.33-3.6c0-1.16-.22-1.75-.65-1.75a6.29,6.29,0,0,0-1.2.11,28,28,0,0,1-7.64,1Q80.68,67.8,80.36,74.46Z"/><path class="cls-1" d="M150,130.59H0V0H150Zm-147-3H147V3H3Z"/><path class="cls-1" d="M211.45,76.16l.11-1.34,1.05-.25c.43-.15.36-.62,0-1.19l-5.32-8.07-2.14,2.06V74c0,.36.25.51,1.3.62l1.38.18.11,1.34h-9.67l.11-1.34,1.41-.18c.91-.11,1.27-.33,1.27-.65V55.67c0-.33-.22-.47-1.34-.62l-1.34-.18-.11-1.34h9.67l-.11,1.34-1.41.18c-1,.11-1.27.33-1.27.65v9.49l6.37-6.34c2.58-2.57,2.46-3.51,1.05-3.77l-1.38-.22-.11-1.34h9.52l-.11,1.34-1.34.25c-1.27.25-2.28.87-4.05,2.61l-5,5,7.17,10.21c.87,1.23,1.34,1.56,2.31,1.74l1,.18.11,1.34Z"/><path class="cls-1" d="M242.58,76.16l.11-1.38,1.56-.25c1.41-.25,1.34-.83.36-3.8l-.76-2.43h-7.46l-.65,2.14c-1,2.82-1,3.87.25,4.09l1.34.25.11,1.38h-8l.11-1.38.94-.25c1.59-.4,2.06-.87,4.31-7.13l4.23-11.73V54.26l3.84-1.41,6.88,20.46a1.63,1.63,0,0,0,1.45,1.12l1.66.36.11,1.38Zm-2.21-18.93h-.25l-3.19,9.45h6.37Z"/><path class="cls-1" d="M287,54.87l-1.7.36c-1.23.22-1.56.62-1.56,7.2v14h-2.57L267.56,57.73h-.22v9.52c0,6.59.25,7,1.49,7.2l1.85.36.11,1.34h-8.4l.11-1.34,1.7-.36c1.23-.22,1.56-.62,1.56-7.2V58.17c0-1.67-.51-2.46-1.45-2.9l-1.7-.4-.11-1.34h7l12.42,17.16h.22V62.44c0-6.59-.22-7-1.48-7.2l-1.85-.36-.11-1.34h8.44Z"/><path class="cls-1" d="M321.93,54.87l-1.7.36c-1.23.22-1.56.62-1.56,7.2v14H316.1L302.45,57.73h-.22v9.52c0,6.59.25,7,1.49,7.2l1.85.36.11,1.34h-8.4l.11-1.34,1.7-.36c1.23-.22,1.56-.62,1.56-7.2V58.17c0-1.67-.51-2.46-1.45-2.9l-1.7-.4-.11-1.34h7l12.42,17.16H317V62.44c0-6.59-.22-7-1.48-7.2l-1.85-.36-.11-1.34H322Z"/><path class="cls-1" d="M342.77,76.16l.11-1.38,1.56-.25c1.41-.25,1.34-.83.36-3.8L344,68.3h-7.46l-.65,2.14c-1,2.82-1,3.87.25,4.09l1.34.25.11,1.38h-8l.11-1.38.94-.25c1.59-.4,2.07-.87,4.31-7.13l4.24-11.73V54.26l3.83-1.41L350,73.3a1.62,1.62,0,0,0,1.45,1.12l1.67.36.11,1.38Zm-2.21-18.93h-.25l-3.18,9.45h6.37Z"/><path class="cls-1" d="M395.83,76.16l.11-1.34,2-.25c.69-.11.91-1.37.72-7l-.4-11.73h-.29l-6.77,19.59H388.7l-6.41-18.86h-.44l-.51,10.86c-.29,6.48-.25,7,.47,7.13l2,.25.11,1.34h-7.9l.11-1.34,2-.25c.72-.11,1.12-.51,1.49-7.13l.47-9.34c.11-1.66-.43-2.57-1.48-2.82l-2-.36-.11-1.38h9.05L391.09,70h.25l5.5-16.44h8.83l-.11,1.38-2.39.18a1,1,0,0,0-.83,1.09l.36,11.4c.15,5.94.47,6.88,1.19,7l1.92.25.11,1.34Z"/><path class="cls-1" d="M428.4,76.16l.11-1.38,1.56-.25c1.41-.25,1.34-.83.36-3.8l-.76-2.43h-7.46l-.65,2.14c-1,2.82-1,3.87.25,4.09l1.34.25.11,1.38h-8l.11-1.38.94-.25c1.59-.4,2.06-.87,4.31-7.13l4.23-11.73V54.26l3.84-1.41L435.6,73.3a1.63,1.63,0,0,0,1.45,1.12l1.66.36.11,1.38Zm-2.21-18.93h-.25l-3.19,9.45h6.37Z"/><path class="cls-1" d="M457.15,76.16h-8.84l.11-1.34,1.41-.18c.91-.11,1.27-.33,1.27-.65V55.67c0-.33-.21-.47-1.34-.62l-1.34-.18-.11-1.34,8.91-.11c8.26-.11,13.54,4.52,13.54,10.86S466.1,76.16,457.15,76.16ZM456.32,55h-1.12V74.17l2.61.54c5.43,0,8.5-4.2,8.5-9.52C466.31,59.11,462.95,55,456.32,55Z"/><path class="cls-1" d="M499.31,76.16H480.63l.11-1.34,1.41-.18c.91-.11,1.27-.33,1.27-.65V55.67c0-.33-.21-.47-1.34-.62l-1.34-.18-.11-1.34h18.76v7.1h-2.1l-.83-3.26c-.62-2.14-1.19-2.32-7.46-2.32h-1.49v8.87h.95c2.42,0,3.11-.11,3.44-1l.83-2.43h1.67l-.8,8.25H492l-.33-2.28c-.11-.8-.43-1.05-3.33-1.05h-.83v9.2h1.38c6.59,0,7.27-.25,8-2.32l.83-3H500Z"/></svg>